<svg width="1103" height="1292" viewBox="0 0 1103 1292" fill="none" xmlns="http://www.w3.org/2000/svg">
<g clip-path="url(#clip0_798_6821)">
<path d="M502.088 199.859C565.45 189.838 617.498 199.348 646.863 206.999C664.758 211.663 736.346 231.802 803.357 294.29L807.44 298.153C848.944 338.056 870.127 377.036 875.837 387.926L875.84 387.93C899.831 433.701 907.261 473.7 910.83 494.085L910.846 494.133L910.928 494.608C913.667 510.308 917.321 531.818 916.275 560.263C915.213 589.496 910.497 611.675 907.428 625.121C904.728 636.973 901.734 649.832 895.043 666.104L895.04 666.108C893.494 669.861 887.552 684.014 876.994 701.08C871.091 710.623 865.538 718.169 861.442 723.426L861.446 723.429C858.033 727.813 854.425 732.586 849.078 738.457C847.554 740.132 840.713 747.581 830.218 756.529H830.215C828.326 758.14 819.978 765.193 807.606 773.51L805.08 775.19C792.424 783.501 781.706 789.025 775.817 791.919C771.502 794.033 756.941 801.021 736.656 807.447C713.381 814.82 694.355 817.656 685.222 818.8C669.56 820.753 657.587 820.91 650.037 821.018H650.03C638.826 821.162 621.123 820.838 599.59 817.891L599.587 817.888C579.763 815.16 563.352 811.129 551.546 807.722C514.649 797.065 486.547 781.998 469.486 771.612C452.851 761.485 428.866 744.902 404.169 719.855C369.665 684.86 350.298 650.067 340.698 630.414V630.41C324.465 597.199 316.06 566.258 311.613 541.671L310.773 536.843C304.668 500.111 305.634 468.611 307.987 445.917L308.478 441.176L313.148 440.197C339.095 434.76 373.867 429.6 415.041 429.468C488.132 429.228 544.473 444.957 572.458 454.174C593.073 460.955 626.294 472.116 664.925 495.897L668.68 498.239L668.684 498.242C675.525 502.566 704.922 521.417 737.696 553.19H737.699C762.321 577.068 778.111 597.846 787.113 609.79L788.982 612.289C793.225 618.012 796.582 622.887 798.977 626.376L800.206 628.195C806.067 636.993 807.894 641.795 818.075 659.479C819.402 661.779 820.592 663.808 821.648 665.608C827.92 658.872 832.009 651.786 835.513 645.526L835.516 645.52C842.299 633.445 846.015 622.269 848.564 612.501C850.473 605.164 858.978 572.615 853.657 524.625L853 518.888C851.277 504.489 848.051 483.066 839.256 457.252C819.837 400.283 787.423 363.456 774.823 350.137H774.82C764.71 339.442 718.918 292.697 641.535 269.635C581.603 251.777 531.653 256.725 511.565 259.56C467.058 265.834 434.23 280.643 419.229 288.225L416.468 289.641C351.172 323.573 315.911 373.775 302.277 395.679C263.292 458.317 258.975 517.973 256.715 555.944C253.099 616.699 264.544 662.089 274.66 702.168C289.391 760.547 309.562 804.317 333.28 851.936L343.657 872.632C353.774 892.756 373.986 931.475 403.154 977.31L408.437 985.519C416.033 997.205 430.3 1018.68 448.869 1044.34V1044.34C461.581 1061.91 473.232 1077.19 483.211 1089.9L491.507 1100.47H423.998L422.038 1097.83C420.172 1095.32 418.235 1092.67 416.209 1089.9L409.857 1081.14C394.359 1059.71 386.468 1048.82 384.963 1046.6V1046.6C364.621 1016.81 350.266 992.537 343.235 980.485C309.888 923.337 290.332 889.838 270.207 845.608C249.39 799.865 223.972 744.056 210.492 666.17L209.264 659.019C203.054 622.495 196.225 574.229 204.409 512.956C209.641 473.744 218.581 411.899 262.556 347.977C305.489 285.557 358.788 255.033 382.202 241.949C435.392 212.225 482.415 203.138 499.062 200.35L502.088 199.859Z" fill="#092903" stroke="#092903" stroke-width="13.1272" stroke-miterlimit="10"/>
</g>
<defs>
<clipPath id="clip0_798_6821">
<rect width="728.884" height="918" fill="white" transform="translate(194.115 189)"/>
</clipPath>
</defs>
</svg>
