<svg width="2767" height="2324" viewBox="0 0 2767 2324" fill="none" xmlns="http://www.w3.org/2000/svg">
<path d="M353.492 1887.38C240.638 1887.38 181.918 1827.74 181 1742.42H257.154C258.071 1787.37 282.844 1817.65 358.08 1817.65H398.451C470.017 1817.65 499.377 1793.8 499.377 1753.43C499.377 1703.88 464.511 1689.2 408.543 1680.03C394.78 1677.27 347.07 1668.1 330.555 1664.43C248.896 1649.75 188.34 1623.14 188.34 1527.72C188.34 1446.06 248.896 1397.43 358.997 1397.43H400.286C511.305 1397.43 569.108 1457.99 569.108 1537.81H492.037C492.037 1497.44 469.099 1466.24 395.698 1466.24H363.585C293.854 1466.24 265.411 1490.1 265.411 1529.55C265.411 1575.43 298.442 1590.11 349.822 1599.28C365.42 1602.04 414.048 1612.13 430.563 1614.88C511.305 1628.64 576.448 1656.17 576.448 1753.43C576.448 1837.84 514.975 1887.38 402.121 1887.38H353.492Z" fill="#092903"/>
<path d="M820.893 1886.47C768.595 1886.47 729.142 1869.03 703.452 1839.67L704.369 1865.36V2065.38H628.216V1589.19C628.216 1469 697.029 1396.51 820.893 1396.51H852.089C974.118 1396.51 1045.68 1469.91 1045.68 1589.19V1693.79C1045.68 1813.98 974.118 1886.47 863.099 1886.47H820.893ZM851.171 1813.06C924.572 1813.06 968.613 1767.19 968.613 1692.87V1591.03C968.613 1515.79 924.572 1470.83 851.171 1470.83H821.811C747.493 1470.83 704.369 1515.79 704.369 1591.03V1692.87C704.369 1767.19 747.493 1813.06 821.811 1813.06H851.171Z" fill="#092903"/>
<path d="M1372.2 1408.44V1481.84H1305.23C1236.41 1481.84 1187.78 1532.31 1187.78 1603.87V1875.46H1111.63V1595.61C1111.63 1478.17 1185.95 1408.44 1303.39 1408.44H1372.2Z" fill="#092903"/>
<path d="M1576.03 1887.38C1454 1887.38 1382.43 1813.98 1382.43 1694.71V1590.11C1382.43 1469.91 1454 1397.43 1576.03 1397.43H1606.31C1727.42 1397.43 1798.98 1469.91 1798.98 1590.11V1694.71C1798.98 1813.98 1727.42 1887.38 1606.31 1887.38H1576.03ZM1604.47 1813.06C1677.87 1813.06 1721.91 1768.11 1721.91 1692.87V1591.03C1721.91 1516.71 1677.87 1470.83 1604.47 1470.83H1576.95C1503.54 1470.83 1459.5 1516.71 1459.5 1591.03V1692.87C1459.5 1768.11 1503.54 1813.06 1576.95 1813.06H1604.47Z" fill="#092903"/>
<path d="M2056.03 1887.38C1935.84 1887.38 1866.11 1816.73 1866.11 1697.46V1408.44H1942.26V1696.54C1942.26 1769.02 1985.38 1813.06 2055.11 1813.06H2078.05C2147.78 1813.06 2191.82 1769.02 2191.82 1696.54V1408.44H2267.98V1697.46C2267.98 1816.73 2197.33 1887.38 2078.05 1887.38H2056.03Z" fill="#092903"/>
<path d="M2345.04 1291H2421.19V1408.44H2575.34V1479.09H2421.19V1691.04C2421.19 1770.86 2474.41 1803.89 2542.31 1803.89H2588.18V1875.46H2531.29C2419.36 1875.46 2345.04 1813.06 2345.04 1697.46V1291Z" fill="#092903"/>
<path d="M1745.48 2041.28L1727.74 2046.3C1726.63 2043.34 1724.98 2040.47 1722.81 2037.68C1720.69 2034.84 1717.79 2032.5 1714.11 2030.66C1710.43 2028.82 1705.72 2027.9 1699.97 2027.9C1692.11 2027.9 1685.55 2029.71 1680.31 2033.33C1675.12 2036.9 1672.53 2041.45 1672.53 2046.97C1672.53 2051.88 1674.32 2055.75 1677.89 2058.6C1681.45 2061.44 1687.03 2063.81 1694.62 2065.71L1713.69 2070.39C1725.18 2073.18 1733.74 2077.45 1739.37 2083.19C1745.01 2088.88 1747.82 2096.22 1747.82 2105.19C1747.82 2112.56 1745.7 2119.14 1741.46 2124.94C1737.28 2130.74 1731.43 2135.31 1723.9 2138.66C1716.37 2142 1707.61 2143.68 1697.63 2143.68C1684.52 2143.68 1673.67 2140.83 1665.09 2135.14C1656.5 2129.46 1651.06 2121.15 1648.77 2110.21L1667.51 2105.53C1669.3 2112.45 1672.67 2117.63 1677.63 2121.09C1682.65 2124.55 1689.21 2126.28 1697.29 2126.28C1706.5 2126.28 1713.8 2124.32 1719.21 2120.42C1724.68 2116.46 1727.41 2111.72 1727.41 2106.2C1727.41 2101.74 1725.85 2098 1722.73 2094.99C1719.6 2091.92 1714.81 2089.63 1708.34 2088.13L1686.92 2083.11C1675.15 2080.32 1666.51 2076 1660.99 2070.14C1655.52 2064.23 1652.79 2056.84 1652.79 2047.97C1652.79 2040.72 1654.82 2034.31 1658.9 2028.73C1663.02 2023.16 1668.63 2018.78 1675.71 2015.6C1682.85 2012.42 1690.94 2010.83 1699.97 2010.83C1712.69 2010.83 1722.67 2013.62 1729.92 2019.2C1737.23 2024.77 1742.41 2032.13 1745.48 2041.28ZM1825.03 2143.68C1813.43 2143.68 1803.25 2140.92 1794.5 2135.4C1785.8 2129.87 1778.99 2122.15 1774.08 2112.22C1769.23 2102.29 1766.81 2090.69 1766.81 2077.42C1766.81 2064.04 1769.23 2052.35 1774.08 2042.37C1778.99 2032.39 1785.8 2024.63 1794.5 2019.11C1803.25 2013.59 1813.43 2010.83 1825.03 2010.83C1836.63 2010.83 1846.78 2013.59 1855.48 2019.11C1864.24 2024.63 1871.04 2032.39 1875.89 2042.37C1880.8 2052.35 1883.26 2064.04 1883.26 2077.42C1883.26 2090.69 1880.8 2102.29 1875.89 2112.22C1871.04 2122.15 1864.24 2129.87 1855.48 2135.4C1846.78 2140.92 1836.63 2143.68 1825.03 2143.68ZM1825.03 2125.94C1833.84 2125.94 1841.09 2123.68 1846.78 2119.17C1852.47 2114.65 1856.68 2108.71 1859.41 2101.35C1862.15 2093.98 1863.51 2086.01 1863.51 2077.42C1863.51 2068.83 1862.15 2060.83 1859.41 2053.41C1856.68 2045.99 1852.47 2040 1846.78 2035.43C1841.09 2030.85 1833.84 2028.57 1825.03 2028.57C1816.22 2028.57 1808.97 2030.85 1803.28 2035.43C1797.59 2040 1793.38 2045.99 1790.65 2053.41C1787.92 2060.83 1786.55 2068.83 1786.55 2077.42C1786.55 2086.01 1787.92 2093.98 1790.65 2101.35C1793.38 2108.71 1797.59 2114.65 1803.28 2119.17C1808.97 2123.68 1816.22 2125.94 1825.03 2125.94ZM1928.43 1969.67V2141H1908.68V1969.67H1928.43ZM2040.85 2088.46V2012.5H2060.6V2141H2040.85V2119.25H2039.52C2036.5 2125.77 2031.82 2131.32 2025.46 2135.9C2019.1 2140.41 2011.07 2142.67 2001.37 2142.67C1993.34 2142.67 1986.2 2140.92 1979.95 2137.4C1973.71 2133.83 1968.8 2128.48 1965.23 2121.34C1961.66 2114.15 1959.87 2105.08 1959.87 2094.15V2012.5H1979.62V2092.81C1979.62 2102.18 1982.24 2109.66 1987.48 2115.23C1992.78 2120.81 1999.53 2123.6 2007.73 2123.6C2012.63 2123.6 2017.63 2122.34 2022.7 2119.83C2027.83 2117.33 2032.13 2113.48 2035.58 2108.29C2039.1 2103.1 2040.85 2096.49 2040.85 2088.46ZM2147.93 2012.5V2029.23H2081.34V2012.5H2147.93ZM2100.75 1981.72H2120.49V2104.19C2120.49 2109.77 2121.3 2113.95 2122.92 2116.74C2124.59 2119.47 2126.71 2121.31 2129.27 2122.26C2131.89 2123.15 2134.66 2123.6 2137.56 2123.6C2139.73 2123.6 2141.51 2123.49 2142.91 2123.26C2144.3 2122.99 2145.42 2122.76 2146.26 2122.6L2150.27 2140.33C2148.93 2140.83 2147.06 2141.33 2144.67 2141.84C2142.27 2142.39 2139.23 2142.67 2135.55 2142.67C2129.97 2142.67 2124.5 2141.47 2119.15 2139.08C2113.85 2136.68 2109.45 2133.02 2105.93 2128.12C2102.48 2123.21 2100.75 2117.02 2100.75 2109.55V1981.72ZM2172.92 2141V2012.5H2192.66V2141H2172.92ZM2182.95 1991.09C2179.11 1991.09 2175.79 1989.78 2173 1987.16C2170.27 1984.53 2168.9 1981.38 2168.9 1977.7C2168.9 1974.02 2170.27 1970.87 2173 1968.25C2175.79 1965.63 2179.11 1964.32 2182.95 1964.32C2186.8 1964.32 2190.09 1965.63 2192.83 1968.25C2195.61 1970.87 2197.01 1974.02 2197.01 1977.7C2197.01 1981.38 2195.61 1984.53 2192.83 1987.16C2190.09 1989.78 2186.8 1991.09 2182.95 1991.09ZM2276.31 2143.68C2264.71 2143.68 2254.53 2140.92 2245.77 2135.4C2237.07 2129.87 2230.27 2122.15 2225.36 2112.22C2220.51 2102.29 2218.08 2090.69 2218.08 2077.42C2218.08 2064.04 2220.51 2052.35 2225.36 2042.37C2230.27 2032.39 2237.07 2024.63 2245.77 2019.11C2254.53 2013.59 2264.71 2010.83 2276.31 2010.83C2287.91 2010.83 2298.06 2013.59 2306.76 2019.11C2315.52 2024.63 2322.32 2032.39 2327.17 2042.37C2332.08 2052.35 2334.53 2064.04 2334.53 2077.42C2334.53 2090.69 2332.08 2102.29 2327.17 2112.22C2322.32 2122.15 2315.52 2129.87 2306.76 2135.4C2298.06 2140.92 2287.91 2143.68 2276.31 2143.68ZM2276.31 2125.94C2285.12 2125.94 2292.37 2123.68 2298.06 2119.17C2303.75 2114.65 2307.96 2108.71 2310.69 2101.35C2313.42 2093.98 2314.79 2086.01 2314.79 2077.42C2314.79 2068.83 2313.42 2060.83 2310.69 2053.41C2307.96 2045.99 2303.75 2040 2298.06 2035.43C2292.37 2030.85 2285.12 2028.57 2276.31 2028.57C2267.5 2028.57 2260.25 2030.85 2254.56 2035.43C2248.87 2040 2244.66 2045.99 2241.93 2053.41C2239.19 2060.83 2237.83 2068.83 2237.83 2077.42C2237.83 2086.01 2239.19 2093.98 2241.93 2101.35C2244.66 2108.71 2248.87 2114.65 2254.56 2119.17C2260.25 2123.68 2267.5 2125.94 2276.31 2125.94ZM2379.7 2063.7V2141H2359.96V2012.5H2379.03V2032.58H2380.71C2383.72 2026.06 2388.29 2020.81 2394.43 2016.85C2400.56 2012.84 2408.48 2010.83 2418.18 2010.83C2426.88 2010.83 2434.5 2012.62 2441.02 2016.18C2447.55 2019.7 2452.62 2025.05 2456.25 2032.25C2459.87 2039.39 2461.69 2048.42 2461.69 2059.35V2141H2441.94V2060.69C2441.94 2050.6 2439.32 2042.73 2434.08 2037.1C2428.84 2031.41 2421.64 2028.57 2412.5 2028.57C2406.19 2028.57 2400.56 2029.93 2395.6 2032.66C2390.69 2035.4 2386.81 2039.39 2383.97 2044.63C2381.12 2049.87 2379.7 2056.23 2379.7 2063.7ZM2584.07 2041.28L2566.33 2046.3C2565.22 2043.34 2563.57 2040.47 2561.4 2037.68C2559.28 2034.84 2556.38 2032.5 2552.7 2030.66C2549.02 2028.82 2544.3 2027.9 2538.56 2027.9C2530.7 2027.9 2524.14 2029.71 2518.9 2033.33C2513.71 2036.9 2511.12 2041.45 2511.12 2046.97C2511.12 2051.88 2512.91 2055.75 2516.48 2058.6C2520.04 2061.44 2525.62 2063.81 2533.21 2065.71L2552.28 2070.39C2563.77 2073.18 2572.33 2077.45 2577.96 2083.19C2583.6 2088.88 2586.41 2096.22 2586.41 2105.19C2586.41 2112.56 2584.29 2119.14 2580.05 2124.94C2575.87 2130.74 2570.02 2135.31 2562.49 2138.66C2554.96 2142 2546.2 2143.68 2536.22 2143.68C2523.11 2143.68 2512.26 2140.83 2503.68 2135.14C2495.09 2129.46 2489.65 2121.15 2487.36 2110.21L2506.1 2105.53C2507.89 2112.45 2511.26 2117.63 2516.22 2121.09C2521.24 2124.55 2527.8 2126.28 2535.88 2126.28C2545.09 2126.28 2552.39 2124.32 2557.8 2120.42C2563.27 2116.46 2566 2111.72 2566 2106.2C2566 2101.74 2564.44 2098 2561.32 2094.99C2558.19 2091.92 2553.4 2089.63 2546.93 2088.13L2525.51 2083.11C2513.74 2080.32 2505.1 2076 2499.58 2070.14C2494.11 2064.23 2491.38 2056.84 2491.38 2047.97C2491.38 2040.72 2493.41 2034.31 2497.49 2028.73C2501.61 2023.16 2507.22 2018.78 2514.3 2015.6C2521.44 2012.42 2529.53 2010.83 2538.56 2010.83C2551.28 2010.83 2561.26 2013.62 2568.51 2019.2C2575.82 2024.77 2581 2032.13 2584.07 2041.28Z" fill="#738482"/>
<g clip-path="url(#clip0_798_7198)">
<path d="M1359.67 191.025C1424 180.851 1476.84 190.506 1506.65 198.274C1524.82 203.008 1597.5 223.455 1665.53 286.896L1669.68 290.818C1711.81 331.329 1733.32 370.904 1739.12 381.96L1739.12 381.963C1763.48 428.433 1771.02 469.042 1774.64 489.737L1774.66 489.786L1774.74 490.269C1777.52 506.209 1781.23 528.046 1780.17 556.925C1779.09 586.603 1774.31 609.121 1771.19 622.772C1768.45 634.805 1765.41 647.86 1758.62 664.381L1758.61 664.384C1757.04 668.195 1751.01 682.563 1740.29 699.889C1734.3 709.578 1728.66 717.239 1724.5 722.576L1724.51 722.579C1721.04 727.03 1717.38 731.876 1711.95 737.836C1710.4 739.538 1703.46 747.1 1692.8 756.184H1692.8C1690.88 757.819 1682.41 764.98 1669.85 773.425L1667.28 775.129C1654.43 783.567 1643.55 789.176 1637.57 792.114C1633.19 794.26 1618.41 801.355 1597.81 807.879C1574.18 815.365 1554.87 818.243 1545.6 819.404C1529.69 821.388 1517.54 821.547 1509.87 821.656H1509.87C1498.49 821.802 1480.52 821.474 1458.66 818.482L1458.65 818.479C1438.53 815.71 1421.87 811.617 1409.88 808.157C1372.42 797.338 1343.89 782.041 1326.57 771.498C1309.68 761.216 1285.33 744.38 1260.26 718.951C1225.23 683.422 1205.56 648.099 1195.82 628.145V628.142C1179.34 594.424 1170.8 563.011 1166.29 538.05L1165.44 533.148C1159.24 495.856 1160.22 463.875 1162.61 440.835L1163.11 436.022L1167.85 435.028C1194.19 429.508 1229.49 424.269 1271.29 424.135C1345.5 423.891 1402.7 439.86 1431.11 449.218C1452.04 456.103 1485.77 467.434 1524.99 491.577L1528.8 493.955L1528.8 493.958C1535.75 498.348 1565.6 517.486 1598.87 549.745H1598.87C1623.87 573.986 1639.9 595.081 1649.04 607.207L1650.94 609.744C1655.25 615.555 1658.65 620.504 1661.09 624.046L1662.33 625.893C1668.28 634.825 1670.14 639.701 1680.47 657.654C1681.82 659.989 1683.03 662.049 1684.1 663.876C1690.47 657.037 1694.62 649.843 1698.18 643.488L1698.18 643.482C1705.07 631.223 1708.84 619.877 1711.43 609.96C1713.37 602.51 1722 569.466 1716.6 520.743L1715.93 514.919C1714.18 500.3 1710.91 478.55 1701.98 452.343C1682.26 394.505 1649.36 357.117 1636.56 343.594H1636.56C1626.3 332.737 1579.81 285.278 1501.24 261.865C1440.4 243.735 1389.68 248.758 1369.29 251.636C1324.1 258.006 1290.78 273.041 1275.55 280.738L1272.74 282.176C1206.45 316.625 1170.65 367.593 1156.81 389.831C1117.23 453.424 1112.85 513.99 1110.55 552.541C1106.88 614.222 1118.5 660.304 1128.77 700.994C1143.73 760.264 1164.21 804.701 1188.29 853.046L1198.82 874.057C1209.09 894.488 1229.61 933.798 1259.23 980.332L1264.59 988.667C1272.3 1000.53 1286.79 1022.33 1305.64 1048.38V1048.38C1318.54 1066.23 1330.37 1081.73 1340.5 1094.64L1348.93 1105.37H1280.39L1278.4 1102.69C1276.5 1100.14 1274.54 1097.46 1272.48 1094.64L1266.03 1085.74C1250.3 1063.99 1242.29 1052.93 1240.76 1050.68V1050.68C1220.1 1020.43 1205.53 995.791 1198.39 983.556C1164.54 925.536 1144.68 891.527 1124.25 846.621C1103.12 800.181 1077.31 743.521 1063.63 664.447L1062.38 657.187C1056.07 620.106 1049.14 571.104 1057.45 508.896C1062.76 469.086 1071.84 406.299 1116.48 341.401C1160.07 278.029 1214.18 247.04 1237.95 233.757C1291.96 203.579 1339.7 194.354 1356.6 191.524L1359.67 191.025Z" fill="#32CE13" stroke="#32CE13" stroke-width="13.3274" stroke-miterlimit="10"/>
</g>
<defs>
<clipPath id="clip0_798_7198">
<rect width="740" height="932" fill="white" transform="translate(1047 180)"/>
</clipPath>
</defs>
</svg>
